Format                           : Matroska
File size                        : 162 MiB
Duration                         : 3mn 15s
Overall bit rate                 : 6 948 Kbps
Movie name                       : Taylor Swift- Crazier 1080p 6CH  ~Abhinav4u~
Cover                            : Yes

ID                               : 1
Format                           : AVC
Format/Info                      : Advanced Video Codec
Format profile                   : High@L4.0
Format settings, CABAC           : Yes
Format settings, ReFrames        : 3 frames
Muxing mode                      : Header stripping
Codec ID                         : V_MPEG4/ISO/AVC
Duration                         : 3mn 15s
Bit rate mode                    : Variable
Bit rate                         : 6 500 Kbps
Maximum bit rate                 : 25.0 Mbps
Width                            : 1 920 pixels
Height                           : 1 080 pixels
Display aspect ratio             : 16:9
Frame rate                       : 23.976 fps
Color space                      : YUV
Chroma subsampling               : 4:2:0
Bit depth                        : 8 bits
Scan type                        : Progressive
Bits/(Pixel*Frame)               : 0.131
Stream size                      : 148 MiB (92%)
Title                            : 1080p ~Abhinav4u~

ID                               : 2
Format                           : AC-3
Format/Info                      : Audio Coding 3
Mode extension                   : CM (complete main)
Muxing mode                      : Header stripping
Codec ID                         : A_AC3
Duration                         : 3mn 15s
Bit rate mode                    : Constant
Bit rate                         : 448 Kbps
Channel(s)                       : 6 channels
Channel positions                : Front: L C R, Side: L R, LFE
Sampling rate                    : 48.0 KHz
Bit depth                        : 16 bits
Compression mode                 : Lossy
Stream size                      : 10.4 MiB (6%)
Title                            : 6 CH ~Abhinav4u~
Language                         : English


 
http://i.minus.com/iJacebBwyCn3i.png 
http://i.minus.com/ibli7G5JlH5b9w.png 
http://i.minus.com/ibzjQ6RyNQOgLg.png 
http://i.minus.com/iwcDgtcvWX9d2.png 
http://i.minus.com/ibkmL1VC0NV2aW.png 
http://i.minus.com/i5XzEomnjhbyn.png 
http://i.minus.com/i9XCtKdQfo9iy.png

Enjoy The Beautiful Song...
Regards::Abhinav4u